# xmcd
# Copyright (C) 1995-1998 Ti Kan
#
# Track frame offsets:
#       150
#       22050
#       47060
#       62513
#
# Disc length: 1179 seconds
#
# Revision: 0
# Processed by: cddbd v1.4PL0 Copyright (c) Steve Scherf et al.
# Submitted via: CD-Transfer v1.0
#
DISCID=2e049904
DTITLE=Funky Brotherhood - Get On Up And Dance
DYEAR=1999
DGENRE=
TTITLE0=Get On Up And Dance
TTITLE1=It Feels So Good
TTITLE2=Is It In?
TTITLE3=Get On Up And Dance Remix
EXTD=
EXTT0=
EXTT1=
EXTT2=
EXTT3=
PLAYORDER=
